<?xml version="1.0" encoding="UTF-8"?>
<svg id="a" xmlns="http://www.w3.org/2000/svg" version="1.1" viewBox="0 0 90.5 68.8">
  <!-- Generator: Adobe Illustrator 29.8.4, SVG Export Plug-In . SVG Version: 2.1.1 Build 6)  -->
  <defs>
    <style>
      .st0 {
        fill: none;
      }

      .st1 {
        fill: #222;
      }
    </style>
  </defs>
  <g>
    <path class="st0" d="M61.9,27.6c3.5-1.2,4.8-3.5,4.8-8.3s-1.5-6.6-5-7.7c-2-.5-4.3-.7-10.3-.7h-30.1v17.9h25.8c9,0,12.1-.3,14.8-1.2Z"/>
    <path class="st0" d="M63.5,39.5c-2.5-.7-5.2-.8-15.3-.8h-26.9v19.2h23.1c22.1,0,24.9-1,24.9-9.3s-1.5-7.8-5.8-9.1Z"/>
  </g>
  <path class="st1" d="M71.5,33.4v-.2c12-1.7,16.3-5.7,16.3-15.2s-3.3-13.3-10.6-15.9C72.5.6,66.6-.1,54.8-.1H0v68.8h57.7c24.3,0,32.8-5,32.8-18.9s-4.5-15-19-16.4ZM21.3,10.9h30.1c6,0,8.3.2,10.3.7,3.5,1.1,5,3.3,5,7.7s-1.3,7-4.8,8.3c-2.7.9-5.8,1.2-14.8,1.2h-25.8V10.9ZM44.4,57.8h-23.1v-19.2h26.9c10.1,0,12.8.1,15.3.8,4.3,1.2,5.8,3.6,5.8,9.1,0,8.3-2.8,9.3-24.9,9.3Z"/>
</svg>